<?xml version="1.0" encoding="utf-8"?>
<!-- Generator: Adobe Illustrator 15.0.0, SVG Export Plug-In . SVG Version: 6.00 Build 0)  -->
<!DOCTYPE svg PUBLIC "-//W3C//DTD SVG 1.1//EN" "http://www.w3.org/Graphics/SVG/1.1/DTD/svg11.dtd">
<svg version="1.1" id="Layer_1" xmlns="http://www.w3.org/2000/svg" xmlns:xlink="http://www.w3.org/1999/xlink" x="0px" y="0px"
	 width="1407.724px" height="166.561px" viewBox="0 0 1407.724 166.561" enable-background="new 0 0 1407.724 166.561"
	 xml:space="preserve">
<g>
	<g enable-background="new    ">
		<path fill="#BA2025" d="M0,163.665V2.655h108.781V32.83H32.727v34.037h74.441V97.04H32.727v36.451h76.055v30.174H0z"/>
	</g>
	<g enable-background="new    ">
		<path fill="#BA2025" d="M303.763,163.665l-38.488-58.9l-38.719,58.9h-38.949l55.773-82.556L191.063,2.655h38.949l35.262,55.038
			l34.801-55.038h39.41l-52.316,78.211l55.773,82.798H303.763z"/>
	</g>
	<g enable-background="new    ">
		<path fill="#BA2025" d="M400.793,83.281C400.793,33.795,436.516,0,482.609,0c33.879,0,53.469,19.312,64.301,39.347l-28.117,14.483
			c-6.453-13.035-20.281-23.415-36.184-23.415c-27.887,0-48.168,22.45-48.168,52.865c0,30.415,20.281,52.865,48.168,52.865
			c15.902,0,29.73-10.139,36.184-23.416l28.117,14.243c-11.063,20.035-30.422,39.588-64.301,39.588
			C436.516,166.561,400.793,132.766,400.793,83.281z"/>
		<path fill="#BA2025" d="M728.526,163.665l-9.449-27.277h-65.914l-9.68,27.277h-37.336L665.608,2.655h41.023l59.23,161.009H728.526
			z M686.12,36.933l-23.969,69.279h47.938L686.12,36.933z"/>
	</g>
	<g enable-background="new    ">
		<path fill="#BA2025" d="M930.875,163.665l-30.191-57.21h-23.969v57.21h-32.727V2.655h71.906c32.035,0,51.625,21.967,51.625,51.899
			c0,28.485-17.055,43.692-33.648,47.795l34.57,61.314H930.875z M934.102,54.555c0-13.518-9.91-21.725-23.047-21.725h-34.34V76.28
			h34.34C924.192,76.28,934.102,68.073,934.102,54.555z"/>
	</g>
	<g enable-background="new    ">
		<path fill="#BA2025" d="M1047.498,163.665V2.655h60.613c48.168,0,81.586,32.105,81.586,80.625
			c0,48.52-33.418,80.384-81.586,80.384H1047.498z M1156.279,83.281c0-28.484-16.594-50.451-48.168-50.451h-27.887v100.661h27.887
			C1138.533,133.491,1156.279,110.558,1156.279,83.281z"/>
	</g>
	<g enable-background="new    ">
		<path fill="#BA2025" d="M1247.087,83.281c0-48.52,33.879-83.281,80.203-83.281c46.555,0,80.434,34.761,80.434,83.281
			c0,48.52-33.879,83.28-80.434,83.28C1280.966,166.561,1247.087,131.8,1247.087,83.281z M1374.076,83.281
			c0-30.174-18.438-52.865-46.785-52.865s-46.555,22.691-46.555,52.865c0,29.933,18.207,52.865,46.555,52.865
			S1374.076,113.213,1374.076,83.281z"/>
	</g>
</g>
</svg>
