<?xml version="1.0" encoding="utf-8"?>
<!-- Generator: Adobe Illustrator 15.0.0, SVG Export Plug-In . SVG Version: 6.00 Build 0)  -->
<!DOCTYPE svg PUBLIC "-//W3C//DTD SVG 1.1//EN" "http://www.w3.org/Graphics/SVG/1.1/DTD/svg11.dtd">
<svg version="1.1" id="Layer_1" xmlns="http://www.w3.org/2000/svg" xmlns:xlink="http://www.w3.org/1999/xlink" x="0px" y="0px"
	 width="1629.36px" height="360px" viewBox="0 0 1629.36 360" enable-background="new 0 0 1629.36 360" xml:space="preserve">
<g>
	<g enable-background="new    ">
		<path fill="#BA2025" d="M110.509,260.594V99.584h108.781v30.174h-76.055v34.037h74.441v30.173h-74.441v36.451h76.055v30.174
			H110.509z"/>
	</g>
	<g enable-background="new    ">
		<path fill="#BA2025" d="M414.272,260.594l-38.488-58.9l-38.719,58.9h-38.949l55.773-82.556l-52.316-78.453h38.949l35.262,55.038
			l34.801-55.038h39.41l-52.316,78.211l55.773,82.798H414.272z"/>
	</g>
	<g enable-background="new    ">
		<path fill="#BA2025" d="M511.302,180.21c0-49.486,35.723-83.281,81.816-83.281c33.879,0,53.469,19.312,64.301,39.347
			l-28.117,14.483c-6.453-13.035-20.281-23.415-36.184-23.415c-27.887,0-48.168,22.45-48.168,52.865
			c0,30.415,20.281,52.865,48.168,52.865c15.902,0,29.73-10.139,36.184-23.416l28.117,14.243
			c-11.063,20.035-30.422,39.588-64.301,39.588C547.025,263.49,511.302,229.695,511.302,180.21z"/>
		<path fill="#BA2025" d="M839.035,260.594l-9.449-27.277h-65.914l-9.68,27.277h-37.336l59.461-161.009h41.023l59.23,161.009
			H839.035z M796.629,133.862l-23.969,69.279h47.938L796.629,133.862z"/>
	</g>
	<g enable-background="new    ">
		<path fill="#BA2025" d="M1041.385,260.594l-30.191-57.21h-23.969v57.21h-32.727V99.584h71.906
			c32.035,0,51.625,21.967,51.625,51.899c0,28.485-17.055,43.692-33.648,47.795l34.57,61.314H1041.385z M1044.611,151.484
			c0-13.518-9.91-21.725-23.047-21.725h-34.34v43.451h34.34C1034.701,173.209,1044.611,165.002,1044.611,151.484z"/>
	</g>
	<g enable-background="new    ">
		<path fill="#BA2025" d="M1158.007,260.594V99.584h60.613c48.168,0,81.586,32.105,81.586,80.625
			c0,48.52-33.418,80.384-81.586,80.384H1158.007z M1266.788,180.21c0-28.484-16.594-50.451-48.168-50.451h-27.887V230.42h27.887
			C1249.042,230.42,1266.788,207.487,1266.788,180.21z"/>
	</g>
	<g enable-background="new    ">
		<path fill="#BA2025" d="M1357.597,180.21c0-48.52,33.879-83.281,80.203-83.281c46.555,0,80.434,34.761,80.434,83.281
			c0,48.52-33.879,83.28-80.434,83.28C1391.476,263.49,1357.597,228.729,1357.597,180.21z M1484.585,180.21
			c0-30.174-18.438-52.865-46.785-52.865s-46.555,22.691-46.555,52.865c0,29.933,18.207,52.865,46.555,52.865
			S1484.585,210.143,1484.585,180.21z"/>
	</g>
</g>
</svg>
